<svg width="106" height="35" viewBox="0 0 106 35" fill="none" xmlns="http://www.w3.org/2000/svg">
<rect x="0.686646" y="0.5" width="104.627" height="34" rx="17" fill="#0D0D0D"/>
<path d="M17.9178 14.4047L16.416 14.74C15.622 11.7651 13.9735 10.2777 11.4705 10.2777C9.84792 10.2777 8.57918 10.9053 7.6643 12.1606C6.74943 13.4159 6.29199 15.1957 6.29199 17.4999C6.29199 19.7697 6.77532 21.5409 7.74198 22.8134C8.70864 24.0859 9.96877 24.7221 11.5223 24.7221C12.9378 24.7221 14.103 24.2149 15.0178 23.2003C15.95 22.1857 16.416 20.8359 16.416 19.1507H16.8562C16.8562 21.1798 16.3297 22.8736 15.2768 24.232C14.2238 25.5733 12.8256 26.244 11.0821 26.244C9.23514 26.244 7.70746 25.4873 6.49913 23.9741C5.29081 22.4437 4.68665 20.363 4.68665 17.732C4.68665 14.8947 5.29081 12.6937 6.49913 11.1289C7.72472 9.54687 9.33869 8.75586 11.3411 8.75586C12.8946 8.75586 14.2497 9.24592 15.4062 10.2261C16.58 11.2063 17.4172 12.5991 17.9178 14.4047ZM9.81339 17.6547H17.9955V25.8313H16.416L17.0892 21.0336L16.416 20.9047V19.1507H9.81339V17.6547Z" fill="white"/>
<path d="M21.2618 20.3372C21.3654 21.7645 21.7796 22.865 22.5046 23.6388C23.2469 24.4126 24.2481 24.7995 25.5082 24.7995C26.5266 24.7995 27.3725 24.533 28.0457 23.9999C28.7361 23.4496 29.1763 22.7102 29.3662 21.7816L30.868 22.0912C30.5745 23.398 29.9531 24.4212 29.0037 25.1606C28.0543 25.8829 26.8891 26.244 25.5082 26.244C23.6784 26.244 22.2371 25.6765 21.1841 24.5416C20.1484 23.4066 19.6306 21.8504 19.6306 19.8729C19.6306 17.9126 20.1225 16.3736 21.1064 15.2559C22.1076 14.1209 23.4799 13.5535 25.2234 13.5535C26.9841 13.5535 28.365 14.1209 29.3662 15.2559C30.3674 16.3736 30.868 17.861 30.868 19.7182V20.3372H21.2618ZM21.3136 19.0475H29.2367C29.2367 17.8782 28.857 16.9066 28.0974 16.1329C27.3379 15.359 26.3799 14.9721 25.2234 14.9721C24.1186 14.9721 23.2296 15.3246 22.5564 16.0297C21.8832 16.7347 21.4689 17.7406 21.3136 19.0475Z" fill="white"/>
<path d="M35.698 15.4364V22.1943C35.698 23.1744 35.8015 23.7849 36.0087 24.0257C36.2331 24.2664 36.7509 24.3868 37.5623 24.3868H39.7631V25.857H37.1738C36.1554 25.857 35.3873 25.6163 34.8694 25.1348C34.3516 24.6361 34.0926 23.7591 34.0926 22.5038V15.4364H31.5552V13.9919H34.0926V10.5098L35.698 10.2261V13.9919H39.7631V15.4364H35.698Z" fill="white"/>
<path d="M88.3182 4.5H56.7584C49.5813 4.5 43.7631 10.3203 43.7631 17.5C43.7631 24.6797 49.5813 30.5 56.7584 30.5H88.3182C95.4952 30.5 101.313 24.6797 101.313 17.5C101.313 10.3203 95.4952 4.5 88.3182 4.5Z" fill="#8F4CF8"/>
<path d="M55.9478 9.60718L54.2412 19.3448C54.1215 20.056 54.3234 20.6083 54.8473 21.0018C55.3713 21.3801 56.1719 21.5692 57.2501 21.5692C58.3129 21.5692 59.1585 21.3801 59.7874 21.0018C60.4311 20.6083 60.8126 20.056 60.9323 19.3448L62.6389 9.60718H66.1866L64.435 19.5945C64.1658 21.1531 63.2975 22.4318 61.8304 23.4305C60.3787 24.4292 58.6573 24.9286 56.6662 24.9286C54.6004 24.9286 53.0136 24.4368 51.9058 23.4532C50.8131 22.4696 50.4014 21.1834 50.6709 19.5945L52.4223 9.60718H55.9478Z" fill="white"/>
<path d="M72.7932 18.1872H76.6101L78.8783 24.4519H75.1059L72.7932 18.1872ZM65.5178 24.4519L68.1224 9.60718H75.4651C77.2316 9.60718 78.5863 10.0914 79.5294 11.0599C80.4873 12.0283 80.8391 13.2692 80.5848 14.7824C80.33 16.2351 79.5665 17.4079 78.2944 18.3006C77.0218 19.1935 75.4949 19.6399 73.7136 19.6399H69.8962L69.0432 24.4519H65.5178ZM70.4801 16.3259H74.0728C74.9263 16.3259 75.6072 16.1897 76.1163 15.9173C76.6403 15.6298 76.9471 15.2288 77.0366 14.7143C77.1415 14.1393 76.9847 13.7005 76.5651 13.3978C76.1613 13.08 75.525 12.9212 74.6567 12.9212H71.0639L70.4801 16.3259Z" fill="white"/>
<path d="M82.9458 9.60718H86.4712L84.4504 21.1153H94.2177L93.6339 24.4519H80.3411L82.9458 9.60718Z" fill="white"/>
</svg>
