<svg width="97" height="26" viewBox="0 0 97 26" fill="none" xmlns="http://www.w3.org/2000/svg">
<g clip-path="url(#clip0_2405_199)">
<path d="M13.5614 9.9048L12.0596 10.2401C11.2655 7.26524 9.61703 5.77781 7.11406 5.77781C5.49147 5.77781 4.22273 6.40543 3.30786 7.66072C2.39298 8.91601 1.93555 10.6958 1.93555 13C1.93555 15.2698 2.41888 17.041 3.38554 18.3135C4.35219 19.586 5.61233 20.2222 7.16586 20.2222C8.58132 20.2222 9.74652 19.715 10.6614 18.7004C11.5935 17.6859 12.0596 16.336 12.0596 14.6508H12.4997C12.4997 16.6799 11.9733 18.3737 10.9203 19.7321C9.86733 21.0734 8.46914 21.7441 6.72569 21.7441C4.8787 21.7441 3.35101 20.9874 2.14269 19.4742C0.934364 17.9438 0.3302 15.8631 0.3302 13.2321C0.3302 10.3948 0.934364 8.19381 2.14269 6.62898C3.36827 5.04697 4.98224 4.25597 6.98462 4.25597C8.5382 4.25597 9.89323 4.74602 11.0498 5.72622C12.2235 6.70638 13.0608 8.09924 13.5614 9.9048ZM5.45694 13.1548H13.6391V21.3314H12.0596L12.7328 16.5337L12.0596 16.4048V14.6508H5.45694V13.1548Z" fill="white"/>
<path d="M16.9053 15.8373C17.0089 17.2646 17.4232 18.3651 18.1482 19.1389C18.8904 19.9127 19.8916 20.2996 21.1518 20.2996C22.1702 20.2996 23.016 20.0331 23.6892 19.5C24.3797 18.9497 24.8199 18.2103 25.0098 17.2817L26.5115 17.5913C26.2181 18.8981 25.5966 19.9213 24.6472 20.6607C23.6978 21.383 22.5327 21.7441 21.1518 21.7441C19.322 21.7441 17.8806 21.1766 16.8276 20.0417C15.792 18.9067 15.2741 17.3505 15.2741 15.373C15.2741 13.4127 15.7661 11.8737 16.75 10.756C17.7512 9.62102 19.1235 9.05357 20.8669 9.05357C22.6276 9.05357 24.0086 9.62102 25.0098 10.756C26.0109 11.8737 26.5115 13.3611 26.5115 15.2183V15.8373H16.9053ZM16.9571 14.5477H24.8803C24.8803 13.3783 24.5005 12.4067 23.741 11.633C22.9815 10.8591 22.0235 10.4722 20.8669 10.4722C19.7621 10.4722 18.8732 10.8247 18.2 11.5298C17.5267 12.2348 17.1125 13.2407 16.9571 14.5477Z" fill="white"/>
<path d="M31.3416 10.9365V17.6944C31.3416 18.6746 31.4451 19.2851 31.6522 19.5258C31.8766 19.7665 32.3945 19.8869 33.2058 19.8869H35.4067V21.3571H32.8174C31.799 21.3571 31.0308 21.1164 30.513 20.6349C29.9951 20.1363 29.7362 19.2593 29.7362 18.004V10.9365H27.1987V9.49209H29.7362V6.00994L31.3416 5.72622V9.49209H35.4067V10.9365H31.3416Z" fill="white"/>
<path d="M83.6746 0H52.1148C44.9377 0 39.1196 5.8203 39.1196 13C39.1196 20.1797 44.9377 26 52.1148 26H83.6746C90.8517 26 96.6698 20.1797 96.6698 13C96.6698 5.8203 90.8517 0 83.6746 0Z" fill="#8F4CF8"/>
<path d="M51.3042 5.10714L49.5976 14.8447C49.4779 15.556 49.6798 16.1083 50.2038 16.5017C50.7278 16.88 51.5284 17.0692 52.6065 17.0692C53.6693 17.0692 54.5149 16.88 55.1438 16.5017C55.7875 16.1083 56.169 15.556 56.2888 14.8447L57.9953 5.10714H61.543L59.7915 15.0944C59.5223 16.653 58.6539 17.9317 57.1868 18.9305C55.7351 19.9292 54.0137 20.4286 52.0226 20.4286C49.9569 20.4286 48.3701 19.9368 47.2622 18.9532C46.1695 17.9696 45.7579 16.6833 46.0273 15.0944L47.7788 5.10714H51.3042Z" fill="white"/>
<path d="M68.1497 13.6871H71.9665L74.2347 19.9519H70.4624L68.1497 13.6871ZM60.8742 19.9519L63.4788 5.10714H70.8216C72.588 5.10714 73.9428 5.59139 74.8858 6.55984C75.8438 7.5283 76.1956 8.76915 75.9412 10.2824C75.6864 11.7351 74.923 12.9078 73.6508 13.8006C72.3782 14.6934 70.8513 15.1398 69.07 15.1398H65.2527L64.3996 19.9519H60.8742ZM65.8365 11.8259H69.4292C70.2827 11.8259 70.9636 11.6897 71.4727 11.4173C71.9967 11.1298 72.3035 10.7288 72.3931 10.2143C72.498 9.63926 72.3411 9.20042 71.9215 8.89775C71.5177 8.58 70.8814 8.42112 70.0131 8.42112H66.4204L65.8365 11.8259Z" fill="white"/>
<path d="M78.3022 5.10714H81.8276L79.8068 16.6153H89.5741L88.9903 19.9519H75.6976L78.3022 5.10714Z" fill="white"/>
</g>
<defs>
<clipPath id="clip0_2405_199">
<rect width="97" height="26" fill="white"/>
</clipPath>
</defs>
</svg>
