<svg width="32" height="32" viewBox="0 0 32 32" fill="none" xmlns="http://www.w3.org/2000/svg">
<path d="M2.66666 12V8.66663C2.66666 5.34663 5.34666 2.66663 8.66666 2.66663H12" stroke="#5E6567" stroke-width="1.5" stroke-linecap="round" stroke-linejoin="round"/>
<path d="M20 2.66663H23.3333C26.6533 2.66663 29.3333 5.34663 29.3333 8.66663V12" stroke="#5E6567" stroke-width="1.5" stroke-linecap="round" stroke-linejoin="round"/>
<path d="M29.3333 21.3334V23.3334C29.3333 26.6534 26.6533 29.3334 23.3333 29.3334H21.3333" stroke="#5E6567" stroke-width="1.5" stroke-linecap="round" stroke-linejoin="round"/>
<path d="M12 29.3333H8.66666C5.34666 29.3333 2.66666 26.6533 2.66666 23.3333V20" stroke="#5E6567" stroke-width="1.5" stroke-linecap="round" stroke-linejoin="round"/>
<path d="M14 9.33337V12C14 13.3334 13.3333 14 12 14H9.33334C8.00001 14 7.33334 13.3334 7.33334 12V9.33337C7.33334 8.00004 8.00001 7.33337 9.33334 7.33337H12C13.3333 7.33337 14 8.00004 14 9.33337Z" stroke="#5E6567" stroke-width="1.5" stroke-linecap="round" stroke-linejoin="round"/>
<path d="M24.6667 9.33337V12C24.6667 13.3334 24 14 22.6667 14H20C18.6667 14 18 13.3334 18 12V9.33337C18 8.00004 18.6667 7.33337 20 7.33337H22.6667C24 7.33337 24.6667 8.00004 24.6667 9.33337Z" stroke="#5E6567" stroke-width="1.5" stroke-linecap="round" stroke-linejoin="round"/>
<path d="M14 20V22.6667C14 24 13.3333 24.6667 12 24.6667H9.33334C8.00001 24.6667 7.33334 24 7.33334 22.6667V20C7.33334 18.6667 8.00001 18 9.33334 18H12C13.3333 18 14 18.6667 14 20Z" stroke="#5E6567" stroke-width="1.5" stroke-linecap="round" stroke-linejoin="round"/>
<path d="M24.6667 20V22.6667C24.6667 24 24 24.6667 22.6667 24.6667H20C18.6667 24.6667 18 24 18 22.6667V20C18 18.6667 18.6667 18 20 18H22.6667C24 18 24.6667 18.6667 24.6667 20Z" stroke="#5E6567" stroke-width="1.5" stroke-linecap="round" stroke-linejoin="round"/>
</svg>
