<svg width="32" height="32" viewBox="0 0 32 32" fill="none" xmlns="http://www.w3.org/2000/svg">
<path d="M22.6667 28H9.33332C3.99999 28 2.66666 26.6667 2.66666 21.3333V10.6667C2.66666 5.33333 3.99999 4 9.33332 4H22.6667C28 4 29.3333 5.33333 29.3333 10.6667V21.3333C29.3333 26.6667 28 28 22.6667 28Z" stroke="#EE9B00" stroke-width="1.5" stroke-linecap="round" stroke-linejoin="round"/>
<path d="M18.6667 10.6666H25.3333" stroke="#EE9B00" stroke-width="1.5" stroke-linecap="round" stroke-linejoin="round"/>
<path d="M20 16H25.3333" stroke="#EE9B00" stroke-width="1.5" stroke-linecap="round" stroke-linejoin="round"/>
<path d="M22.6667 21.3334H25.3333" stroke="#EE9B00" stroke-width="1.5" stroke-linecap="round" stroke-linejoin="round"/>
<path d="M11.3333 15.0534C12.6662 15.0534 13.7467 13.9729 13.7467 12.64C13.7467 11.3072 12.6662 10.2267 11.3333 10.2267C10.0005 10.2267 8.92001 11.3072 8.92001 12.64C8.92001 13.9729 10.0005 15.0534 11.3333 15.0534Z" stroke="#EE9B00" stroke-width="1.5" stroke-linecap="round" stroke-linejoin="round"/>
<path d="M16 21.7733C15.8133 19.84 14.28 18.32 12.3467 18.1467C11.68 18.08 11 18.08 10.32 18.1467C8.38666 18.3333 6.85332 19.84 6.66666 21.7733" stroke="#EE9B00" stroke-width="1.5" stroke-linecap="round" stroke-linejoin="round"/>
</svg>
